# xmcd CD database file
#
# Track frame offsets:
#	150
#	18241
#	34446
#
# Disc length: 706 seconds
#
# Revision: 0
# Processed by: cddbd v1.5.2PL0 Copyright (c) Steve Scherf et al.
# Submitted via: CDex 1.51
#
DISCID=1d02c003
DTITLE=Lindsay McCaul - Harvest Songs preview
DYEAR=2007
DGENRE=Worship
TTITLE0=Arms of the Savior
TTITLE1=Speak
TTITLE2=Let Go
EXTD=YEAR: 2007
EXTT0=
EXTT1=
EXTT2=
PLAYORDER=
